<mxfile host="app.diagrams.net" modified="2023-06-18T16:50:41.818Z" agent="Mozilla/5.0 (Windows NT 10.0; Win64; x64) AppleWebKit/537.36 (KHTML, like Gecko) Chrome/112.0.0.0 Safari/537.36" etag="hvezxNhiV9TlicVdCwGz" version="21.5.0" type="device">
  <diagram name="Trang-1" id="S5qEE1ozxj-i4MaadB1z">
    <mxGraphModel dx="3033" dy="1567" grid="1" gridSize="10" guides="1" tooltips="1" connect="1" arrows="1" fold="1" page="1" pageScale="1" pageWidth="1500" pageHeight="1400" math="0" shadow="0">
      <root>
        <mxCell id="0" />
        <mxCell id="1" parent="0" />
        <mxCell id="2t5druAi-JmB8xqviGO5-3" style="edgeStyle=none;rounded=0;orthogonalLoop=1;jettySize=auto;html=1;entryX=0;entryY=1;entryDx=0;entryDy=0;spacing=0;fontSize=15;" parent="1" source="AF-HmIzR10IM6tgfzZtX-1" target="AF-HmIzR10IM6tgfzZtX-10" edge="1">
          <mxGeometry relative="1" as="geometry" />
        </mxCell>
        <mxCell id="2t5druAi-JmB8xqviGO5-4" style="edgeStyle=none;rounded=0;orthogonalLoop=1;jettySize=auto;html=1;entryX=0;entryY=1;entryDx=0;entryDy=0;spacing=0;fontSize=15;" parent="1" source="AF-HmIzR10IM6tgfzZtX-1" target="AF-HmIzR10IM6tgfzZtX-12" edge="1">
          <mxGeometry relative="1" as="geometry" />
        </mxCell>
        <mxCell id="2t5druAi-JmB8xqviGO5-5" style="edgeStyle=none;rounded=0;orthogonalLoop=1;jettySize=auto;html=1;entryX=0;entryY=0.5;entryDx=0;entryDy=0;spacing=0;fontSize=15;" parent="1" source="AF-HmIzR10IM6tgfzZtX-1" target="AF-HmIzR10IM6tgfzZtX-11" edge="1">
          <mxGeometry relative="1" as="geometry" />
        </mxCell>
        <mxCell id="2t5druAi-JmB8xqviGO5-6" style="edgeStyle=none;rounded=0;orthogonalLoop=1;jettySize=auto;html=1;entryX=0;entryY=0.5;entryDx=0;entryDy=0;spacing=0;fontSize=15;" parent="1" source="AF-HmIzR10IM6tgfzZtX-1" target="AF-HmIzR10IM6tgfzZtX-37" edge="1">
          <mxGeometry relative="1" as="geometry" />
        </mxCell>
        <mxCell id="2t5druAi-JmB8xqviGO5-7" style="edgeStyle=none;rounded=0;orthogonalLoop=1;jettySize=auto;html=1;entryX=0;entryY=0.5;entryDx=0;entryDy=0;spacing=0;fontSize=15;" parent="1" source="AF-HmIzR10IM6tgfzZtX-1" target="AF-HmIzR10IM6tgfzZtX-65" edge="1">
          <mxGeometry relative="1" as="geometry" />
        </mxCell>
        <mxCell id="2t5druAi-JmB8xqviGO5-8" style="edgeStyle=none;rounded=0;orthogonalLoop=1;jettySize=auto;html=1;entryX=0;entryY=0.5;entryDx=0;entryDy=0;spacing=0;fontSize=15;" parent="1" source="AF-HmIzR10IM6tgfzZtX-1" target="AF-HmIzR10IM6tgfzZtX-6" edge="1">
          <mxGeometry relative="1" as="geometry" />
        </mxCell>
        <mxCell id="AF-HmIzR10IM6tgfzZtX-1" value="Quản trị" style="shape=umlActor;verticalLabelPosition=bottom;verticalAlign=top;html=1;fontSize=15;spacing=0;" parent="1" vertex="1">
          <mxGeometry x="187" y="610" width="30" height="60" as="geometry" />
        </mxCell>
        <mxCell id="AF-HmIzR10IM6tgfzZtX-8" style="rounded=0;orthogonalLoop=1;jettySize=auto;html=1;entryX=1;entryY=0.5;entryDx=0;entryDy=0;fontSize=15;spacing=0;" parent="1" source="AF-HmIzR10IM6tgfzZtX-2" target="AF-HmIzR10IM6tgfzZtX-6" edge="1">
          <mxGeometry relative="1" as="geometry" />
        </mxCell>
        <mxCell id="AF-HmIzR10IM6tgfzZtX-47" style="edgeStyle=none;rounded=0;orthogonalLoop=1;jettySize=auto;html=1;entryX=1;entryY=0.5;entryDx=0;entryDy=0;fontSize=15;spacing=0;" parent="1" source="AF-HmIzR10IM6tgfzZtX-2" target="AF-HmIzR10IM6tgfzZtX-42" edge="1">
          <mxGeometry relative="1" as="geometry" />
        </mxCell>
        <mxCell id="AF-HmIzR10IM6tgfzZtX-55" style="edgeStyle=none;rounded=0;orthogonalLoop=1;jettySize=auto;html=1;entryX=1;entryY=0;entryDx=0;entryDy=0;fontSize=15;spacing=0;" parent="1" source="AF-HmIzR10IM6tgfzZtX-2" target="AF-HmIzR10IM6tgfzZtX-53" edge="1">
          <mxGeometry relative="1" as="geometry" />
        </mxCell>
        <mxCell id="AF-HmIzR10IM6tgfzZtX-64" style="edgeStyle=none;rounded=0;orthogonalLoop=1;jettySize=auto;html=1;entryX=1;entryY=0.5;entryDx=0;entryDy=0;fontSize=15;spacing=0;" parent="1" source="AF-HmIzR10IM6tgfzZtX-2" target="AF-HmIzR10IM6tgfzZtX-60" edge="1">
          <mxGeometry relative="1" as="geometry" />
        </mxCell>
        <mxCell id="AF-HmIzR10IM6tgfzZtX-68" style="edgeStyle=none;rounded=0;orthogonalLoop=1;jettySize=auto;html=1;entryX=0.76;entryY=0.948;entryDx=0;entryDy=0;fontSize=15;entryPerimeter=0;spacing=0;" parent="1" source="AF-HmIzR10IM6tgfzZtX-2" target="AF-HmIzR10IM6tgfzZtX-65" edge="1">
          <mxGeometry relative="1" as="geometry">
            <mxPoint x="646.580649312496" y="671.5976812984541" as="targetPoint" />
          </mxGeometry>
        </mxCell>
        <mxCell id="AF-HmIzR10IM6tgfzZtX-71" style="edgeStyle=none;rounded=0;orthogonalLoop=1;jettySize=auto;html=1;entryX=1;entryY=1;entryDx=0;entryDy=0;fontSize=15;spacing=0;" parent="1" source="AF-HmIzR10IM6tgfzZtX-2" target="AF-HmIzR10IM6tgfzZtX-43" edge="1">
          <mxGeometry relative="1" as="geometry" />
        </mxCell>
        <mxCell id="AF-HmIzR10IM6tgfzZtX-2" value="Nhân viên" style="shape=umlActor;verticalLabelPosition=bottom;verticalAlign=top;html=1;fontSize=15;spacing=0;" parent="1" vertex="1">
          <mxGeometry x="1260" y="858" width="30" height="60" as="geometry" />
        </mxCell>
        <mxCell id="AF-HmIzR10IM6tgfzZtX-74" style="edgeStyle=none;rounded=0;orthogonalLoop=1;jettySize=auto;html=1;entryX=1;entryY=0.5;entryDx=0;entryDy=0;fontSize=15;spacing=0;" parent="1" source="AF-HmIzR10IM6tgfzZtX-3" target="AF-HmIzR10IM6tgfzZtX-72" edge="1">
          <mxGeometry relative="1" as="geometry" />
        </mxCell>
        <mxCell id="AF-HmIzR10IM6tgfzZtX-78" style="edgeStyle=none;rounded=0;orthogonalLoop=1;jettySize=auto;html=1;entryX=1;entryY=1;entryDx=0;entryDy=0;fontSize=15;spacing=0;" parent="1" source="AF-HmIzR10IM6tgfzZtX-3" target="AF-HmIzR10IM6tgfzZtX-73" edge="1">
          <mxGeometry relative="1" as="geometry" />
        </mxCell>
        <mxCell id="AF-HmIzR10IM6tgfzZtX-80" style="edgeStyle=none;rounded=0;orthogonalLoop=1;jettySize=auto;html=1;entryX=1;entryY=0;entryDx=0;entryDy=0;fontSize=15;spacing=0;" parent="1" source="AF-HmIzR10IM6tgfzZtX-3" target="AF-HmIzR10IM6tgfzZtX-79" edge="1">
          <mxGeometry relative="1" as="geometry" />
        </mxCell>
        <mxCell id="JH56MXZsqnYbt68CLzrr-2" style="rounded=0;orthogonalLoop=1;jettySize=auto;html=1;spacing=0;fontSize=15;" parent="1" source="AF-HmIzR10IM6tgfzZtX-3" target="JH56MXZsqnYbt68CLzrr-1" edge="1">
          <mxGeometry relative="1" as="geometry" />
        </mxCell>
        <mxCell id="JH56MXZsqnYbt68CLzrr-6" style="rounded=0;orthogonalLoop=1;jettySize=auto;html=1;entryX=0.5;entryY=1;entryDx=0;entryDy=0;spacing=0;fontSize=15;" parent="1" source="AF-HmIzR10IM6tgfzZtX-3" target="AF-HmIzR10IM6tgfzZtX-6" edge="1">
          <mxGeometry relative="1" as="geometry" />
        </mxCell>
        <mxCell id="AF-HmIzR10IM6tgfzZtX-3" value="Khách hàng" style="shape=umlActor;verticalLabelPosition=bottom;verticalAlign=top;html=1;fontSize=15;spacing=0;" parent="1" vertex="1">
          <mxGeometry x="1047" y="1114" width="30" height="60" as="geometry" />
        </mxCell>
        <mxCell id="AF-HmIzR10IM6tgfzZtX-6" value="Đăng nhập" style="ellipse;whiteSpace=wrap;html=1;fontSize=15;spacing=0;" parent="1" vertex="1">
          <mxGeometry x="572" y="798" width="210" height="60" as="geometry" />
        </mxCell>
        <mxCell id="AF-HmIzR10IM6tgfzZtX-18" style="rounded=0;orthogonalLoop=1;jettySize=auto;html=1;entryX=0;entryY=1;entryDx=0;entryDy=0;fontSize=15;spacing=0;" parent="1" source="AF-HmIzR10IM6tgfzZtX-10" target="AF-HmIzR10IM6tgfzZtX-13" edge="1">
          <mxGeometry relative="1" as="geometry">
            <mxPoint x="613.6842491305015" y="118.2137399911121" as="targetPoint" />
          </mxGeometry>
        </mxCell>
        <mxCell id="AF-HmIzR10IM6tgfzZtX-19" style="rounded=0;orthogonalLoop=1;jettySize=auto;html=1;entryX=0;entryY=1;entryDx=0;entryDy=0;fontSize=15;spacing=0;" parent="1" source="AF-HmIzR10IM6tgfzZtX-10" target="AF-HmIzR10IM6tgfzZtX-14" edge="1">
          <mxGeometry relative="1" as="geometry" />
        </mxCell>
        <mxCell id="AF-HmIzR10IM6tgfzZtX-20" style="edgeStyle=none;rounded=0;orthogonalLoop=1;jettySize=auto;html=1;entryX=0;entryY=0.5;entryDx=0;entryDy=0;fontSize=15;spacing=0;" parent="1" source="AF-HmIzR10IM6tgfzZtX-10" target="AF-HmIzR10IM6tgfzZtX-15" edge="1">
          <mxGeometry relative="1" as="geometry" />
        </mxCell>
        <mxCell id="AF-HmIzR10IM6tgfzZtX-21" style="edgeStyle=none;rounded=0;orthogonalLoop=1;jettySize=auto;html=1;entryX=0;entryY=0.5;entryDx=0;entryDy=0;fontSize=15;spacing=0;" parent="1" source="AF-HmIzR10IM6tgfzZtX-10" target="AF-HmIzR10IM6tgfzZtX-17" edge="1">
          <mxGeometry relative="1" as="geometry" />
        </mxCell>
        <mxCell id="AF-HmIzR10IM6tgfzZtX-10" value="Thiết lập nhà hàng" style="ellipse;whiteSpace=wrap;html=1;fontSize=15;spacing=0;" parent="1" vertex="1">
          <mxGeometry x="350" y="362" width="210" height="60" as="geometry" />
        </mxCell>
        <mxCell id="AF-HmIzR10IM6tgfzZtX-31" style="edgeStyle=none;rounded=0;orthogonalLoop=1;jettySize=auto;html=1;entryX=0;entryY=0.5;entryDx=0;entryDy=0;fontSize=15;spacing=0;" parent="1" source="AF-HmIzR10IM6tgfzZtX-11" target="AF-HmIzR10IM6tgfzZtX-29" edge="1">
          <mxGeometry relative="1" as="geometry" />
        </mxCell>
        <mxCell id="AF-HmIzR10IM6tgfzZtX-32" style="edgeStyle=none;rounded=0;orthogonalLoop=1;jettySize=auto;html=1;entryX=0;entryY=0.5;entryDx=0;entryDy=0;fontSize=15;spacing=0;" parent="1" source="AF-HmIzR10IM6tgfzZtX-11" target="AF-HmIzR10IM6tgfzZtX-30" edge="1">
          <mxGeometry relative="1" as="geometry" />
        </mxCell>
        <mxCell id="AF-HmIzR10IM6tgfzZtX-11" value="Quản lý hệ thống" style="ellipse;whiteSpace=wrap;html=1;fontSize=15;spacing=0;" parent="1" vertex="1">
          <mxGeometry x="610" y="510" width="210" height="60" as="geometry" />
        </mxCell>
        <mxCell id="AF-HmIzR10IM6tgfzZtX-27" style="edgeStyle=none;rounded=0;orthogonalLoop=1;jettySize=auto;html=1;entryX=0;entryY=0.5;entryDx=0;entryDy=0;fontSize=15;spacing=0;" parent="1" source="AF-HmIzR10IM6tgfzZtX-12" target="AF-HmIzR10IM6tgfzZtX-23" edge="1">
          <mxGeometry relative="1" as="geometry" />
        </mxCell>
        <mxCell id="AF-HmIzR10IM6tgfzZtX-28" style="edgeStyle=none;rounded=0;orthogonalLoop=1;jettySize=auto;html=1;entryX=0;entryY=0.5;entryDx=0;entryDy=0;fontSize=15;spacing=0;" parent="1" source="AF-HmIzR10IM6tgfzZtX-12" target="AF-HmIzR10IM6tgfzZtX-25" edge="1">
          <mxGeometry relative="1" as="geometry" />
        </mxCell>
        <mxCell id="AF-HmIzR10IM6tgfzZtX-12" value="Quản lý nhân viên" style="ellipse;whiteSpace=wrap;html=1;fontSize=15;spacing=0;" parent="1" vertex="1">
          <mxGeometry x="510" y="430" width="210" height="60" as="geometry" />
        </mxCell>
        <mxCell id="AF-HmIzR10IM6tgfzZtX-13" value="Cập nhật thông tin chung" style="ellipse;whiteSpace=wrap;html=1;fontSize=15;spacing=0;" parent="1" vertex="1">
          <mxGeometry x="468" y="238" width="180" height="40" as="geometry" />
        </mxCell>
        <mxCell id="AF-HmIzR10IM6tgfzZtX-14" value="Cập nhật cơ sở" style="ellipse;whiteSpace=wrap;html=1;fontSize=15;spacing=0;" parent="1" vertex="1">
          <mxGeometry x="660" y="238" width="180" height="40" as="geometry" />
        </mxCell>
        <mxCell id="AF-HmIzR10IM6tgfzZtX-15" value="Cập nhật khu vực và bàn" style="ellipse;whiteSpace=wrap;html=1;fontSize=15;spacing=0;" parent="1" vertex="1">
          <mxGeometry x="789" y="286" width="180" height="40" as="geometry" />
        </mxCell>
        <mxCell id="AF-HmIzR10IM6tgfzZtX-17" value="Cập nhật loại bàn" style="ellipse;whiteSpace=wrap;html=1;fontSize=15;spacing=0;" parent="1" vertex="1">
          <mxGeometry x="732" y="340" width="180" height="40" as="geometry" />
        </mxCell>
        <mxCell id="AF-HmIzR10IM6tgfzZtX-23" value="Cập nhật nhân viên" style="ellipse;whiteSpace=wrap;html=1;fontSize=15;spacing=0;" parent="1" vertex="1">
          <mxGeometry x="950" y="362" width="180" height="40" as="geometry" />
        </mxCell>
        <mxCell id="AF-HmIzR10IM6tgfzZtX-25" value="Phân quyền người dùng" style="ellipse;whiteSpace=wrap;html=1;fontSize=15;spacing=0;" parent="1" vertex="1">
          <mxGeometry x="830" y="437" width="180" height="40" as="geometry" />
        </mxCell>
        <mxCell id="AF-HmIzR10IM6tgfzZtX-29" value="Cập nhật Menu website" style="ellipse;whiteSpace=wrap;html=1;fontSize=15;spacing=0;" parent="1" vertex="1">
          <mxGeometry x="1024" y="470" width="180" height="40" as="geometry" />
        </mxCell>
        <mxCell id="AF-HmIzR10IM6tgfzZtX-30" value="Cập nhật slide website" style="ellipse;whiteSpace=wrap;html=1;fontSize=15;spacing=0;" parent="1" vertex="1">
          <mxGeometry x="972" y="530" width="180" height="40" as="geometry" />
        </mxCell>
        <mxCell id="AF-HmIzR10IM6tgfzZtX-41" style="edgeStyle=none;rounded=0;orthogonalLoop=1;jettySize=auto;html=1;entryX=0;entryY=0.5;entryDx=0;entryDy=0;fontSize=15;spacing=0;" parent="1" source="AF-HmIzR10IM6tgfzZtX-37" target="AF-HmIzR10IM6tgfzZtX-40" edge="1">
          <mxGeometry relative="1" as="geometry" />
        </mxCell>
        <mxCell id="AF-HmIzR10IM6tgfzZtX-37" value="Thống kê, báo cáo" style="ellipse;whiteSpace=wrap;html=1;fontSize=15;spacing=0;" parent="1" vertex="1">
          <mxGeometry x="509" y="600" width="210" height="60" as="geometry" />
        </mxCell>
        <mxCell id="AF-HmIzR10IM6tgfzZtX-40" value="Xuất báo cáo" style="ellipse;whiteSpace=wrap;html=1;fontSize=15;spacing=0;" parent="1" vertex="1">
          <mxGeometry x="880" y="591" width="180" height="40" as="geometry" />
        </mxCell>
        <mxCell id="AF-HmIzR10IM6tgfzZtX-48" style="edgeStyle=none;rounded=0;orthogonalLoop=1;jettySize=auto;html=1;entryX=1;entryY=0.5;entryDx=0;entryDy=0;fontSize=15;spacing=0;" parent="1" source="AF-HmIzR10IM6tgfzZtX-42" target="AF-HmIzR10IM6tgfzZtX-44" edge="1">
          <mxGeometry relative="1" as="geometry" />
        </mxCell>
        <mxCell id="AF-HmIzR10IM6tgfzZtX-49" style="edgeStyle=none;rounded=0;orthogonalLoop=1;jettySize=auto;html=1;entryX=1;entryY=0.5;entryDx=0;entryDy=0;fontSize=15;spacing=0;" parent="1" source="AF-HmIzR10IM6tgfzZtX-42" target="AF-HmIzR10IM6tgfzZtX-46" edge="1">
          <mxGeometry relative="1" as="geometry" />
        </mxCell>
        <mxCell id="AF-HmIzR10IM6tgfzZtX-50" style="edgeStyle=none;rounded=0;orthogonalLoop=1;jettySize=auto;html=1;entryX=1;entryY=0.5;entryDx=0;entryDy=0;fontSize=15;spacing=0;" parent="1" source="AF-HmIzR10IM6tgfzZtX-42" target="AF-HmIzR10IM6tgfzZtX-45" edge="1">
          <mxGeometry relative="1" as="geometry" />
        </mxCell>
        <mxCell id="AF-HmIzR10IM6tgfzZtX-42" value="Quản lý mặt hàng" style="ellipse;whiteSpace=wrap;html=1;fontSize=15;spacing=0;" parent="1" vertex="1">
          <mxGeometry x="537" y="923" width="210" height="60" as="geometry" />
        </mxCell>
        <mxCell id="AF-HmIzR10IM6tgfzZtX-43" value="Quản lý thực đơn" style="ellipse;whiteSpace=wrap;html=1;fontSize=15;spacing=0;" parent="1" vertex="1">
          <mxGeometry x="994" y="750" width="210" height="60" as="geometry" />
        </mxCell>
        <mxCell id="AF-HmIzR10IM6tgfzZtX-44" value="Cập nhật dm mặt hàng" style="ellipse;whiteSpace=wrap;html=1;fontSize=15;spacing=0;" parent="1" vertex="1">
          <mxGeometry x="247" y="818" width="180" height="40" as="geometry" />
        </mxCell>
        <mxCell id="AF-HmIzR10IM6tgfzZtX-45" value="Cập nhật đơn vị tính" style="ellipse;whiteSpace=wrap;html=1;fontSize=15;spacing=0;" parent="1" vertex="1">
          <mxGeometry x="217" y="893" width="180" height="40" as="geometry" />
        </mxCell>
        <mxCell id="AF-HmIzR10IM6tgfzZtX-46" value="Cập nhật mặt hàng" style="ellipse;whiteSpace=wrap;html=1;fontSize=15;spacing=0;" parent="1" vertex="1">
          <mxGeometry x="217" y="973" width="180" height="40" as="geometry" />
        </mxCell>
        <mxCell id="AF-HmIzR10IM6tgfzZtX-53" value="Quản lý combo" style="ellipse;whiteSpace=wrap;html=1;fontSize=15;spacing=0;" parent="1" vertex="1">
          <mxGeometry x="962" y="973" width="210" height="60" as="geometry" />
        </mxCell>
        <mxCell id="AF-HmIzR10IM6tgfzZtX-60" value="Quản lý đặt bàn" style="ellipse;whiteSpace=wrap;html=1;fontSize=15;spacing=0;" parent="1" vertex="1">
          <mxGeometry x="797" y="863" width="210" height="60" as="geometry" />
        </mxCell>
        <mxCell id="AF-HmIzR10IM6tgfzZtX-70" style="edgeStyle=none;rounded=0;orthogonalLoop=1;jettySize=auto;html=1;entryX=0;entryY=0.5;entryDx=0;entryDy=0;fontSize=15;spacing=0;" parent="1" source="AF-HmIzR10IM6tgfzZtX-65" target="AF-HmIzR10IM6tgfzZtX-66" edge="1">
          <mxGeometry relative="1" as="geometry" />
        </mxCell>
        <mxCell id="CL8UPqSGpkxzdZZR_zWG-2" style="rounded=0;orthogonalLoop=1;jettySize=auto;html=1;spacing=0;fontSize=15;" parent="1" source="AF-HmIzR10IM6tgfzZtX-65" target="CL8UPqSGpkxzdZZR_zWG-1" edge="1">
          <mxGeometry relative="1" as="geometry" />
        </mxCell>
        <mxCell id="AF-HmIzR10IM6tgfzZtX-65" value="Quản lý hóa đơn" style="ellipse;whiteSpace=wrap;html=1;fontSize=15;spacing=0;" parent="1" vertex="1">
          <mxGeometry x="477" y="700" width="210" height="60" as="geometry" />
        </mxCell>
        <mxCell id="AF-HmIzR10IM6tgfzZtX-66" value="In hóa đơn" style="ellipse;whiteSpace=wrap;html=1;fontSize=15;spacing=0;" parent="1" vertex="1">
          <mxGeometry x="854" y="650" width="180" height="40" as="geometry" />
        </mxCell>
        <mxCell id="AF-HmIzR10IM6tgfzZtX-77" style="edgeStyle=none;rounded=0;orthogonalLoop=1;jettySize=auto;html=1;entryX=1;entryY=0.5;entryDx=0;entryDy=0;fontSize=15;spacing=0;" parent="1" source="AF-HmIzR10IM6tgfzZtX-72" target="AF-HmIzR10IM6tgfzZtX-75" edge="1">
          <mxGeometry relative="1" as="geometry" />
        </mxCell>
        <mxCell id="AF-HmIzR10IM6tgfzZtX-72" value="Đặt bàn" style="ellipse;whiteSpace=wrap;html=1;fontSize=15;spacing=0;" parent="1" vertex="1">
          <mxGeometry x="560" y="1130" width="210" height="60" as="geometry" />
        </mxCell>
        <mxCell id="AF-HmIzR10IM6tgfzZtX-73" value="Đăng ký" style="ellipse;whiteSpace=wrap;html=1;fontSize=15;spacing=0;" parent="1" vertex="1">
          <mxGeometry x="664" y="990" width="210" height="60" as="geometry" />
        </mxCell>
        <mxCell id="AF-HmIzR10IM6tgfzZtX-75" value="Thanh toán trước" style="ellipse;whiteSpace=wrap;html=1;fontSize=15;spacing=0;" parent="1" vertex="1">
          <mxGeometry x="270" y="1160" width="180" height="40" as="geometry" />
        </mxCell>
        <mxCell id="AF-HmIzR10IM6tgfzZtX-79" value="Tìm kiếm món ăn" style="ellipse;whiteSpace=wrap;html=1;fontSize=15;spacing=0;" parent="1" vertex="1">
          <mxGeometry x="782" y="1190" width="210" height="60" as="geometry" />
        </mxCell>
        <mxCell id="AF-HmIzR10IM6tgfzZtX-82" style="edgeStyle=none;rounded=0;orthogonalLoop=1;jettySize=auto;html=1;exitX=0.5;exitY=1;exitDx=0;exitDy=0;fontSize=15;spacing=0;" parent="1" source="AF-HmIzR10IM6tgfzZtX-14" target="AF-HmIzR10IM6tgfzZtX-14" edge="1">
          <mxGeometry relative="1" as="geometry" />
        </mxCell>
        <mxCell id="CL8UPqSGpkxzdZZR_zWG-1" value="Hủy đơn" style="ellipse;whiteSpace=wrap;html=1;fontSize=15;spacing=0;" parent="1" vertex="1">
          <mxGeometry x="830" y="720" width="180" height="40" as="geometry" />
        </mxCell>
        <mxCell id="CL8UPqSGpkxzdZZR_zWG-4" value="&amp;lt;&amp;lt;Extends&amp;gt;&amp;gt;" style="text;html=1;strokeColor=none;fillColor=none;align=center;verticalAlign=middle;whiteSpace=wrap;rounded=0;rotation=-71;spacing=0;fontSize=12;" parent="1" vertex="1">
          <mxGeometry x="442" y="304" width="60" height="30" as="geometry" />
        </mxCell>
        <mxCell id="CL8UPqSGpkxzdZZR_zWG-5" value="&amp;lt;&amp;lt;Includes&amp;gt;&amp;gt;" style="text;html=1;strokeColor=none;fillColor=none;align=center;verticalAlign=middle;whiteSpace=wrap;rounded=0;rotation=-30;spacing=0;fontSize=12;" parent="1" vertex="1">
          <mxGeometry x="557" y="297" width="60" height="30" as="geometry" />
        </mxCell>
        <mxCell id="CL8UPqSGpkxzdZZR_zWG-6" value="&amp;lt;&amp;lt;Includes&amp;gt;&amp;gt;" style="text;html=1;strokeColor=none;fillColor=none;align=center;verticalAlign=middle;whiteSpace=wrap;rounded=0;rotation=-15;spacing=0;fontSize=12;" parent="1" vertex="1">
          <mxGeometry x="620" y="317" width="60" height="30" as="geometry" />
        </mxCell>
        <mxCell id="CL8UPqSGpkxzdZZR_zWG-7" value="&amp;lt;&amp;lt;Includes&amp;gt;&amp;gt;" style="text;html=1;strokeColor=none;fillColor=none;align=center;verticalAlign=middle;whiteSpace=wrap;rounded=0;rotation=-5;spacing=0;fontSize=12;" parent="1" vertex="1">
          <mxGeometry x="615" y="347" width="60" height="30" as="geometry" />
        </mxCell>
        <mxCell id="CL8UPqSGpkxzdZZR_zWG-8" value="&amp;lt;&amp;lt;Includes&amp;gt;&amp;gt;" style="text;html=1;strokeColor=none;fillColor=none;align=center;verticalAlign=middle;whiteSpace=wrap;rounded=0;rotation=0;spacing=0;fontSize=12;" parent="1" vertex="1">
          <mxGeometry x="743" y="434" width="60" height="30" as="geometry" />
        </mxCell>
        <mxCell id="CL8UPqSGpkxzdZZR_zWG-9" value="&amp;lt;&amp;lt;Includes&amp;gt;&amp;gt;" style="text;html=1;strokeColor=none;fillColor=none;align=center;verticalAlign=middle;whiteSpace=wrap;rounded=0;rotation=-15;spacing=0;fontSize=12;" parent="1" vertex="1">
          <mxGeometry x="789" y="387" width="60" height="30" as="geometry" />
        </mxCell>
        <mxCell id="CL8UPqSGpkxzdZZR_zWG-10" value="&amp;lt;&amp;lt;Includes&amp;gt;&amp;gt;" style="text;html=1;strokeColor=none;fillColor=none;align=center;verticalAlign=middle;whiteSpace=wrap;rounded=0;rotation=-10;spacing=0;fontSize=12;" parent="1" vertex="1">
          <mxGeometry x="876" y="484" width="60" height="30" as="geometry" />
        </mxCell>
        <mxCell id="CL8UPqSGpkxzdZZR_zWG-11" value="&amp;lt;&amp;lt;Includes&amp;gt;&amp;gt;" style="text;html=1;strokeColor=none;fillColor=none;align=center;verticalAlign=middle;whiteSpace=wrap;rounded=0;rotation=0;spacing=0;fontSize=12;" parent="1" vertex="1">
          <mxGeometry x="867" y="523" width="60" height="30" as="geometry" />
        </mxCell>
        <mxCell id="CL8UPqSGpkxzdZZR_zWG-12" value="&amp;lt;&amp;lt;Includes&amp;gt;&amp;gt;" style="text;html=1;strokeColor=none;fillColor=none;align=center;verticalAlign=middle;whiteSpace=wrap;rounded=0;rotation=-5;spacing=0;fontSize=12;" parent="1" vertex="1">
          <mxGeometry x="752" y="591" width="60" height="30" as="geometry" />
        </mxCell>
        <mxCell id="CL8UPqSGpkxzdZZR_zWG-14" value="&amp;lt;&amp;lt;Extends&amp;gt;&amp;gt;" style="text;html=1;strokeColor=none;fillColor=none;align=center;verticalAlign=middle;whiteSpace=wrap;rounded=0;rotation=-15;spacing=0;fontSize=12;" parent="1" vertex="1">
          <mxGeometry x="729" y="666" width="60" height="30" as="geometry" />
        </mxCell>
        <mxCell id="CL8UPqSGpkxzdZZR_zWG-17" value="&amp;lt;&amp;lt;Extends&amp;gt;&amp;gt;" style="text;html=1;strokeColor=none;fillColor=none;align=center;verticalAlign=middle;whiteSpace=wrap;rounded=0;rotation=0;spacing=0;fontSize=12;" parent="1" vertex="1">
          <mxGeometry x="732" y="710" width="60" height="30" as="geometry" />
        </mxCell>
        <mxCell id="CL8UPqSGpkxzdZZR_zWG-18" value="&amp;lt;&amp;lt;Extends&amp;gt;&amp;gt;" style="text;html=1;strokeColor=none;fillColor=none;align=center;verticalAlign=middle;whiteSpace=wrap;rounded=0;rotation=-5;spacing=0;fontSize=12;" parent="1" vertex="1">
          <mxGeometry x="468" y="1150" width="60" height="30" as="geometry" />
        </mxCell>
        <mxCell id="CL8UPqSGpkxzdZZR_zWG-20" value="&amp;lt;&amp;lt;Includes&amp;gt;&amp;gt;" style="text;html=1;strokeColor=none;fillColor=none;align=center;verticalAlign=middle;whiteSpace=wrap;rounded=0;rotation=30;spacing=0;fontSize=12;" parent="1" vertex="1">
          <mxGeometry x="479" y="854" width="60" height="30" as="geometry" />
        </mxCell>
        <mxCell id="CL8UPqSGpkxzdZZR_zWG-22" value="&amp;lt;&amp;lt;Includes&amp;gt;&amp;gt;" style="text;html=1;strokeColor=none;fillColor=none;align=center;verticalAlign=middle;whiteSpace=wrap;rounded=0;rotation=10;spacing=0;fontSize=12;" parent="1" vertex="1">
          <mxGeometry x="450" y="901" width="60" height="30" as="geometry" />
        </mxCell>
        <mxCell id="CL8UPqSGpkxzdZZR_zWG-23" value="&amp;lt;&amp;lt;Includes&amp;gt;&amp;gt;" style="text;html=1;strokeColor=none;fillColor=none;align=center;verticalAlign=middle;whiteSpace=wrap;rounded=0;rotation=-10;spacing=0;fontSize=12;" parent="1" vertex="1">
          <mxGeometry x="440" y="956" width="60" height="30" as="geometry" />
        </mxCell>
        <mxCell id="JH56MXZsqnYbt68CLzrr-4" style="rounded=0;orthogonalLoop=1;jettySize=auto;html=1;entryX=1;entryY=0.5;entryDx=0;entryDy=0;spacing=0;fontSize=15;" parent="1" source="JH56MXZsqnYbt68CLzrr-1" target="JH56MXZsqnYbt68CLzrr-3" edge="1">
          <mxGeometry relative="1" as="geometry" />
        </mxCell>
        <mxCell id="JH56MXZsqnYbt68CLzrr-1" value="Quản lý đơn đặt bàn" style="ellipse;whiteSpace=wrap;html=1;fontSize=15;spacing=0;" parent="1" vertex="1">
          <mxGeometry x="480" y="1050" width="210" height="60" as="geometry" />
        </mxCell>
        <mxCell id="JH56MXZsqnYbt68CLzrr-3" value="Hủy đơn đặt bàn" style="ellipse;whiteSpace=wrap;html=1;fontSize=15;spacing=0;" parent="1" vertex="1">
          <mxGeometry x="234" y="1070" width="180" height="40" as="geometry" />
        </mxCell>
        <mxCell id="JH56MXZsqnYbt68CLzrr-5" value="&amp;lt;&amp;lt;Extends&amp;gt;&amp;gt;" style="text;html=1;strokeColor=none;fillColor=none;align=center;verticalAlign=middle;whiteSpace=wrap;rounded=0;rotation=-10;spacing=0;fontSize=12;" parent="1" vertex="1">
          <mxGeometry x="420" y="1060" width="60" height="30" as="geometry" />
        </mxCell>
      </root>
    </mxGraphModel>
  </diagram>
</mxfile>
